<?xml version="1.0" encoding="utf-8"?>
<!-- Generator: Adobe Illustrator 20.1.0, SVG Export Plug-In . SVG Version: 6.00 Build 0)  -->
<svg version="1.1" xmlns="http://www.w3.org/2000/svg" xmlns:xlink="http://www.w3.org/1999/xlink" x="0px" y="0px"
	 viewBox="0 0 300 300" style="enable-background:new 0 0 300 300;" xml:space="preserve">
<style type="text/css">
	.st0{fill:none;stroke:#FFFFFF;stroke-miterlimit:10;}
	.st1{stroke:#FFFFFF;stroke-miterlimit:10;}
	.st2{stroke:#FFFFFF;stroke-width:0.25;stroke-miterlimit:10;}
	.st3{fill:none;}
</style>
<g id="Laag_4">
	<path class="st0" d="M16.7,160.2"/>
	<g>
		<path class="st1" d="M25.5,25.8v18.5c9-2.5,31.4-12.5,70.4-18.5H25.5z"/>
		<path class="st1" d="M101.6,25.8h-5.7c-39.1,6-61.4,16-70.4,18.5v41c6-5.8,31.2-24.3,116.8-37.6C131.6,24.5,101.6,25.8,101.6,25.8
			z"/>
		<path class="st1" d="M146.4,63.5c-22.3,2.9-48.9,8.4-48.9,8.4c-77.2,15.8-36,56.8-30,62.8v-27.9h35.3c48.5,0,43.6-41.8,43.6-41.8
			C146.4,64.1,146.4,64.3,146.4,63.5z"/>
		<path class="st1" d="M97.5,71.9c0,0,26.6-5.4,48.9-8.4c-0.3-6.2-2.1-11.5-4.1-15.8C56.7,60.9,31.5,79.5,25.5,85.3v66.5h42v-17.1
			C61.5,128.7,20.3,87.7,97.5,71.9z"/>
		<path class="st1" d="M255.8,124c-14.4-27.8,6.9-25.9-2.5-49.1c-9.1-22.8-74.8-15.8-95.8-12.6v36c0,0-5.9,50,58.4,50
			c0,0,28,1.9,45.5-14.5c0,0-0.1-0.1-0.1-0.1c0,0-0.1,0.1-0.1,0.1C258.3,128.4,255.8,124,255.8,124z"/>
		<path class="st1" d="M157.5,25.8v20c18-3.3,96-15.4,117,5.1V25.8H157.5z"/>
		<path class="st1" d="M157.5,45.7v16.5c21-3.2,86.7-10.2,95.8,12.6c9.3,23.3-11.5,21.3,2.9,49.1c0,0,2.3,4.3,5.2,9.8
			c7.7-7.2,13.1-18,13.1-34v-49C253.5,30.3,175.5,42.4,157.5,45.7z"/>
		<path class="st2" d="M253.3,74.9c9.3,23.3-11.8,21.3,2.5,49.1c0,0,2.5,4.4,5.5,9.9c0,0,0.1-0.1,0.1-0.1c-3-5.5-5.2-9.8-5.2-9.8
			C241.8,96.2,262.6,98.1,253.3,74.9z"/>
		<path class="st1" d="M215.2,175.5c14.9,12,31.4,8.3,37,6.3l-7.5-27.1h-61.2l-5.1,19.5C188.4,170.6,204.1,166.6,215.2,175.5z"/>
		<path class="st1" d="M176.6,274.8h92.5C258.9,268.8,223.9,247.8,176.6,274.8z"/>
		<path class="st2" d="M178.5,174.5L167.1,221c3.4-0.1,7-1.1,17.6-6.2c18.2-8.8,42.6-6,55.6,3.2c8.6,6.2,17.9,9,23.1,10.2
			l-11.4-45.5c-0.1,0,0.1,0,0,0l0,0c-5.3,1.9-22.3,5.3-37.4-6.9C203.3,166.8,188.4,170.9,178.5,174.5"/>
		<path class="st1" d="M240.3,218.4c-13-9.3-37.4-12.2-55.6-3.4c-10.6,5.1-14.2,6.8-17.6,6.9l-12.5,52.9h22.1c47.3-27,82.2-6,92.5,0
			h5.2l-9.8-46.5C259.3,227.1,248.9,224.6,240.3,218.4z"/>
		<path class="st1" d="M100.7,163c16.9,9.8,41.8,13.7,44.8,14.3v-22.9l-42.6,0.9L100.7,163z"/>
		<path class="st1" d="M101.3,161.2c-0.1-0.1-0.2-0.1-0.4-0.2l-13.2,43.1c0.1,0,0.1,0.1,0.2,0.1l0.1-0.1c6,3.1,24.5,12.2,57.5,15.9
			v-42.6c-3-0.6-28.1-6.2-44.5-15.2L101.3,161.2z"/>
		<path class="st1" d="M25.5,274.8h89.4c-13.1-3-59.4-13.4-89.4-33.6V274.8z"/>
		<path class="st1" d="M83.5,202l-14.4-47.3H25.5v5.9C31.5,167.4,49.3,183.3,83.5,202z"/>
		<path class="st1" d="M86.5,209.5l-2.9-7.4c-0.1-0.1-0.2-0.1-0.3-0.2l0.5,1.3c-34.4-18.7-52.3-35.8-58.3-42.5v80.5
			c30,20.2,76.3,30.6,89.4,33.6h30.6V220c-33-3.7-51.4-12.6-57.5-15.8L86.5,209.5z"/>
		<path class="st2" d="M83.3,201.9"/>
	</g>
</g>
<g id="Laag_2">
	<rect x="6.2" y="6.1" class="st3" width="288.1" height="288.1"/>
</g>
<g id="Laag_3">
	<g>
		<path d="M287,13v273.8H13.2V13H287 M300,0H0.2v299.8H300V0L300,0z"/>
	</g>
</g>
</svg>
